<svg width="44" height="49" viewBox="0 0 44 49" fill="none" xmlns="http://www.w3.org/2000/svg">
<g clip-path="url(#clip0_101_416)">
<mask id="mask0_101_416" style="mask-type:luminance" maskUnits="userSpaceOnUse" x="0" y="0" width="44" height="49">
<path d="M44 0.5H0V48.5H44V0.5Z" fill="white"/>
</mask>
<g mask="url(#mask0_101_416)">
<path d="M22 44.9883C34.1503 44.9883 44 35.0293 44 22.7442C44 10.459 34.1503 0.5 22 0.5C9.84973 0.5 0 10.459 0 22.7442C0 35.0293 9.84973 44.9883 22 44.9883Z" fill="#45EF8A"/>
<path d="M22 44.6956C27.7841 44.6956 33.3347 42.3916 37.4506 38.2828C41.5665 34.174 43.9164 28.5916 43.9905 22.7442H43.9991C43.9991 28.6434 41.6814 34.3016 37.555 38.4728C33.4306 42.644 27.8344 44.9884 22 44.9884C16.1656 44.9884 10.5694 42.645 6.444 38.4728C2.31764 34.3016 0 28.6434 0 22.7442H0.00854516C0.0826032 28.5916 2.43252 34.174 6.54844 38.2828C10.6644 42.3916 16.2159 44.6946 22 44.6956Z" fill="#263238" fill-opacity="0.2"/>
<path d="M22 0.5C16.1656 0.5 10.5694 2.84432 6.444 7.01552C2.31859 11.1867 0 16.845 0 22.7442H44C44 16.845 41.6814 11.1867 37.556 7.01552C33.4296 2.84432 27.8344 0.5 22 0.5Z" fill="#3DDC84"/>
<path d="M22.0001 22.1586C23.599 22.1586 24.895 20.8482 24.895 19.2315C24.895 17.6149 23.599 16.3045 22.0001 16.3045C20.4012 16.3045 19.1052 17.6149 19.1052 19.2315C19.1052 20.8482 20.4012 22.1586 22.0001 22.1586Z" fill="#3DDC84"/>
<path d="M44 22.7442H0V22.4514H44V22.7442Z" fill="#263238" fill-opacity="0.05"/>
<path d="M44 23.037H0V22.7442H44V23.037Z" fill="white" fill-opacity="0.05"/>
<path d="M17.3192 22.7442L5.62183 48.5H44.0001V28.5973L24.3158 8.69556L19.6843 12.2082L17.3192 22.7442Z" fill="url(#paint0_linear_101_416)"/>
<path d="M22 0.7928C27.7841 0.7928 33.3347 3.0968 37.4506 7.2056C41.5665 11.3144 43.9164 16.8968 43.9905 22.7442H43.9991C43.9991 16.845 41.6814 11.1867 37.555 7.01552C33.4306 2.84336 27.8344 0.5 22 0.5C16.1656 0.5 10.5694 2.84336 6.444 7.01552C2.31764 11.1867 0 16.845 0 22.7442H0.00854516C0.0826032 16.8968 2.43252 11.3144 6.54844 7.2056C10.6644 3.0968 16.2159 0.7928 22 0.7928Z" fill="white" fill-opacity="0.2"/>
<path d="M26.6808 22.7442H21.3315L34.9487 46.5887L38.0896 48.4213C38.1788 48.4732 38.2795 48.5 38.382 48.5C38.5358 48.4991 38.682 48.4376 38.7912 48.3282C38.8995 48.2188 38.9612 48.07 38.9612 47.9144V44.2444L26.6808 22.7442Z" fill="#D7EFFE"/>
<path opacity="0.3" d="M26.6808 22.7442H21.3315L34.9487 46.5887L38.0896 48.4213C38.1788 48.4732 38.2795 48.5 38.382 48.5C38.5358 48.4991 38.682 48.4376 38.7912 48.3282C38.8995 48.2188 38.9612 48.07 38.9612 47.9144V44.2444L26.6808 22.7442Z" fill="#BDBDBD"/>
<path d="M38.9563 44.2444L26.6798 22.7442H26.5117L38.9563 44.5372V44.2444Z" fill="white" fill-opacity="0.2"/>
<path d="M38.3782 48.2072C38.2756 48.2072 38.175 48.1794 38.0857 48.1285L34.9449 46.2968L21.4986 22.7442H21.3306L34.9478 46.5887L38.0886 48.4213C38.1778 48.4732 38.2785 48.5 38.381 48.5C38.5348 48.4991 38.681 48.4376 38.7902 48.3282C38.8985 48.2188 38.9602 48.07 38.9602 47.9144V47.6216C38.9583 47.7772 38.8966 47.925 38.7874 48.0344C38.6782 48.1448 38.531 48.2063 38.3782 48.2072Z" fill="#212121" fill-opacity="0.1"/>
<path d="M33.5787 22.7442C33.5787 24.7496 33.0689 26.7215 32.0995 28.4706C31.1291 30.2197 29.7315 31.6875 28.0386 32.733C26.3467 33.7784 24.4174 34.3679 22.4349 34.4427C20.4534 34.5186 18.4851 34.0779 16.7201 33.1631L22 23.9144L22.6685 22.7432H17.3192L5.03979 44.2443V47.9144C5.03979 48.0699 5.10151 48.2178 5.20975 48.3282C5.31799 48.4386 5.46515 48.5 5.61897 48.5C5.72151 48.5 5.82215 48.4722 5.9114 48.4213L9.05222 46.5887L14.4015 37.2229C16.872 38.5477 19.6387 39.2043 22.4349 39.1285C25.2301 39.0527 27.9589 38.2472 30.3553 36.7899C32.7518 35.3327 34.7342 33.2735 36.111 30.812C37.4877 28.3506 38.2112 25.5714 38.2112 22.7442H33.5787Z" fill="#D7EFFE"/>
<path d="M17.3192 22.7441L5.03979 44.2442V44.537L17.4872 22.7441H17.3192ZM22 34.4513C20.1638 34.4532 18.3532 34.0116 16.7201 33.163V33.4558C18.4851 34.3706 20.4534 34.8103 22.4349 34.7354C24.4164 34.6606 26.3467 34.0711 28.0386 33.0257C29.7306 31.9802 31.1291 30.5124 32.0995 28.7633C33.0698 27.0142 33.5787 25.0423 33.5787 23.0369H38.2017C38.2045 22.9399 38.2102 22.8439 38.2102 22.7441H33.5787C33.5787 25.8487 32.3587 28.8266 30.1873 31.0222C28.0158 33.2177 25.0706 34.4513 22 34.4513Z" fill="white" fill-opacity="0.4"/>
<path d="M22.6685 22.7441H22.5004L16.7172 32.8711V33.1639L22.6685 22.7441ZM38.2017 22.7441C38.1523 25.5463 37.3937 28.2881 35.998 30.7092C34.6023 33.1303 32.615 35.1482 30.2281 36.5719C27.8402 37.9946 25.1323 38.7751 22.3608 38.8385C19.5903 38.9009 16.8492 38.2452 14.4015 36.931L9.05222 46.2967L5.9114 48.1284C5.82215 48.1802 5.72151 48.2071 5.61897 48.2071C5.46515 48.2071 5.31894 48.1447 5.20975 48.0353C5.10151 47.9258 5.03979 47.777 5.03979 47.6215V47.9143C5.03979 48.0698 5.10151 48.2177 5.20975 48.3281C5.31799 48.4385 5.46515 48.4999 5.61897 48.4999C5.72151 48.4999 5.82215 48.4721 5.9114 48.4212L9.05222 46.5886L14.4015 37.2228C16.872 38.5476 19.6387 39.2042 22.4349 39.1284C25.2301 39.0526 27.9589 38.2471 30.3553 36.7898C32.7518 35.3326 34.7342 33.2734 36.111 30.8119C37.4877 28.3505 38.2112 25.5713 38.2112 22.7441H38.2017Z" fill="#212121" fill-opacity="0.1"/>
<path d="M27.2106 12.2072H24.3157V8.69556H19.6842V12.2082H16.7893C16.3288 12.2092 15.8883 12.3954 15.5626 12.7237C15.2369 13.053 15.0537 13.4984 15.0527 13.964V22.7442L20.7723 28.5215C20.9337 28.6847 21.1245 28.8143 21.3353 28.9026C21.5461 28.9909 21.7721 29.037 22 29.037C22.2278 29.037 22.4538 28.9919 22.6646 28.9026C22.8754 28.8143 23.0662 28.6847 23.2276 28.5215L28.9472 22.7442V13.964C28.9462 13.4984 28.762 13.053 28.4373 12.7237C28.1116 12.3944 27.6701 12.2082 27.2106 12.2072ZM22 22.1586C21.4274 22.1586 20.8672 21.9868 20.3916 21.6652C19.9159 21.3436 19.5446 20.8866 19.3253 20.3519C19.106 19.8172 19.049 19.2287 19.1601 18.6604C19.2721 18.093 19.5475 17.5708 19.952 17.1618C20.3564 16.7528 20.8729 16.4735 21.4341 16.3612C21.9952 16.2479 22.5772 16.3064 23.107 16.5282C23.6359 16.75 24.0878 17.1244 24.4059 17.6063C24.724 18.0872 24.8939 18.6536 24.8939 19.2325C24.8939 20.0092 24.5882 20.7532 24.046 21.3023C23.5039 21.8514 22.7671 22.1586 22 22.1586Z" fill="#073042"/>
<path d="M27.2106 12.2072H24.3157V12.5H27.2106C27.6711 12.501 28.1116 12.6872 28.4373 13.0156C28.763 13.3448 28.9462 13.7903 28.9472 14.2559V13.9631C28.9462 13.4975 28.762 13.052 28.4373 12.7228C28.1116 12.3944 27.6701 12.2082 27.2106 12.2072ZM24.3157 8.69556H19.6842V8.98836H24.3157V8.69556ZM19.6842 12.2072H16.7893C16.3288 12.2082 15.8883 12.3944 15.5626 12.7228C15.2369 13.052 15.0537 13.4975 15.0527 13.9631V14.2559C15.0537 13.7903 15.2379 13.3448 15.5626 13.0156C15.8883 12.6863 16.3288 12.501 16.7893 12.5H19.6842V12.2072ZM22 22.1586C21.2318 22.1586 20.496 21.8495 19.9529 21.3013C19.4098 20.7532 19.105 20.0082 19.105 19.2316V19.5244C19.105 20.301 19.4098 21.045 19.9529 21.5941C20.496 22.1432 21.2318 22.4514 22 22.4514C22.7681 22.4514 23.5039 22.1432 24.047 21.5941C24.5901 21.045 24.8949 20.301 24.8949 19.5244V19.2316C24.8949 20.0082 24.5891 20.7522 24.047 21.3013C23.5049 21.8504 22.7671 22.1586 22 22.1586Z" fill="white" fill-opacity="0.1"/>
<path d="M22 16.3045C22.7671 16.3045 23.5039 16.6136 24.046 17.1618C24.5882 17.7099 24.8939 18.4549 24.8939 19.2306V18.9378C24.8939 18.1611 24.5891 17.4171 24.046 16.868C23.503 16.3189 22.7671 16.0107 21.999 16.0107C21.2309 16.0107 20.4951 16.3189 19.952 16.868C19.4089 17.4171 19.1041 18.1611 19.1041 18.9378V19.2306C19.1041 18.4549 19.4098 17.7099 19.952 17.1618C20.4941 16.6136 21.2318 16.3055 22 16.3045ZM23.2276 28.2287C23.0662 28.3919 22.8754 28.5215 22.6646 28.6098C22.4538 28.6981 22.2278 28.7432 22 28.7432C21.7721 28.7432 21.5461 28.6981 21.3353 28.6098C21.1245 28.5215 20.9337 28.3919 20.7723 28.2287L15.0527 22.4514V22.7442L20.7723 28.5215C20.9337 28.6847 21.1245 28.8143 21.3353 28.9026C21.5461 28.9909 21.7721 29.037 22 29.037C22.2278 29.037 22.4538 28.9919 22.6646 28.9026C22.8754 28.8143 23.0662 28.6847 23.2276 28.5215L28.9472 22.7442V22.4514L23.2276 28.2287Z" fill="#212121" fill-opacity="0.1"/>
<path d="M44.0001 22.7442C44.002 19.0136 43.0753 15.3426 41.3055 12.068C39.5366 8.79443 36.9807 6.0229 33.875 4.00882C30.7693 1.99571 27.2117 0.803385 23.5306 0.544185C19.8495 0.284985 16.1637 0.964665 12.8112 2.52275C9.4586 4.08083 6.54755 6.46738 4.34574 9.46066C2.14394 12.4539 0.722595 15.9599 0.211784 19.6549C-0.299027 23.3499 0.117787 27.1151 1.4233 30.6047C2.72881 34.0943 4.88124 37.1951 7.6831 39.6229L5.04265 44.2443V47.9144C5.04265 48.0699 5.10437 48.2178 5.2126 48.3282C5.32084 48.4376 5.46801 48.5 5.62182 48.5C5.72436 48.5 5.82501 48.4722 5.91426 48.4213L9.05508 46.5887L11.5066 42.2975C14.7291 44.0629 18.3361 44.9874 22.001 44.9874C25.6659 44.9874 29.2729 44.0629 32.4954 42.2975L34.9469 46.5887L38.0877 48.4213C38.177 48.4731 38.2776 48.5 38.3802 48.5C38.533 48.4991 38.6802 48.4376 38.7894 48.3282C38.8976 48.2187 38.9594 48.0699 38.9594 47.9144V44.2443L36.3199 39.6229C38.7305 37.5378 40.6655 34.9496 41.9919 32.0351C43.3174 29.1215 44.002 25.9515 44.0001 22.7442Z" fill="url(#paint1_radial_101_416)"/>
</g>
</g>
<defs>
<linearGradient id="paint0_linear_101_416" x1="16.7946" y1="29.6312" x2="37.6708" y2="41.1912" gradientUnits="userSpaceOnUse">
<stop stop-color="#263238" stop-opacity="0.2"/>
<stop offset="1" stop-color="#263238" stop-opacity="0.02"/>
</linearGradient>
<radialGradient id="paint1_radial_101_416" cx="0" cy="0" r="1" gradientUnits="userSpaceOnUse" gradientTransform="translate(6.47366 6.99694) scale(52.1404 56.8809)">
<stop stop-color="white" stop-opacity="0.1"/>
<stop offset="1" stop-color="white" stop-opacity="0"/>
</radialGradient>
<clipPath id="clip0_101_416">
<rect width="44" height="48" fill="white" transform="translate(0 0.5)"/>
</clipPath>
</defs>
</svg>
