<svg width="54" height="55" viewBox="0 0 54 55" fill="none" xmlns="http://www.w3.org/2000/svg">
<g clip-path="url(#clip0_101_179)">
<path d="M40.6967 18.3278H13.3033C12.6939 18.3278 12.2 18.8217 12.2 19.4311V42.4027C12.2 43.0121 12.6939 43.506 13.3033 43.506H18.1869V51.2476C18.1869 53.0437 19.6429 54.4999 21.4393 54.4999C23.2354 54.4999 24.6916 53.0439 24.6916 51.2476V43.506H29.2406V51.2476C29.2406 53.0437 30.6967 54.4999 32.493 54.4999C34.2892 54.4999 35.7454 53.0439 35.7454 51.2476V43.506H40.6969C41.3062 43.506 41.8002 43.0121 41.8002 42.4027V19.4311C41.8 18.8217 41.3061 18.3278 40.6967 18.3278Z" fill="#AAC148"/>
<path d="M7.5622 18.3224C5.76602 18.3224 4.30981 19.7785 4.30981 21.5748V34.7848C4.30981 36.5809 5.76589 38.0372 7.5622 38.0372C9.35838 38.0372 10.8146 36.5811 10.8146 34.7848V21.5748C10.8145 19.7787 9.35838 18.3224 7.5622 18.3224Z" fill="#AAC148"/>
<path d="M46.4378 18.3224C44.6416 18.3224 43.1854 19.7785 43.1854 21.5748V34.7848C43.1854 36.5809 44.6415 38.0372 46.4378 38.0372C48.234 38.0372 49.6902 36.5811 49.6902 34.7848V21.5748C49.6902 19.7787 48.2341 18.3224 46.4378 18.3224Z" fill="#AAC148"/>
<path d="M13.525 16.7167H40.4104C41.1118 16.7167 41.6349 16.0706 41.4908 15.3841C40.6015 11.1456 37.9029 7.57359 34.2412 5.51011L36.5395 1.36316C36.6951 1.0824 36.5936 0.72858 36.3129 0.573039C36.0315 0.417105 35.6782 0.518926 35.5226 0.799685L33.2069 4.97787C31.3102 4.09769 29.1964 3.6061 26.9677 3.6061C24.7389 3.6061 22.6251 4.09769 20.7284 4.97787L18.4126 0.799554C18.257 0.518665 17.9031 0.417366 17.6225 0.572908C17.3418 0.72845 17.2403 1.08227 17.3959 1.36303L19.6942 5.50998C16.0325 7.57359 13.3339 11.1454 12.4446 15.3841C12.3004 16.0706 12.8235 16.7167 13.525 16.7167ZM34.99 10.5365C34.99 11.2269 34.4303 11.7867 33.7398 11.7867C33.0494 11.7867 32.4896 11.227 32.4896 10.5365C32.4896 9.84607 33.0492 9.28625 33.7398 9.28625C34.4303 9.28625 34.99 9.84607 34.99 10.5365ZM20.1954 9.28625C20.8858 9.28625 21.4456 9.84593 21.4456 10.5365C21.4456 11.2269 20.8859 11.7867 20.1954 11.7867C19.505 11.7867 18.9451 11.227 18.9451 10.5365C18.9451 9.84607 19.5048 9.28625 20.1954 9.28625Z" fill="#AAC148"/>
</g>
<defs>
<clipPath id="clip0_101_179">
<rect width="54" height="54" fill="white" transform="translate(0 0.5)"/>
</clipPath>
</defs>
</svg>
