<svg width="48" height="57" viewBox="0 0 48 57" fill="none" xmlns="http://www.w3.org/2000/svg">
<g clip-path="url(#clip0_11_46)">
<path d="M47.3893 42.7499C47.766 42.0615 48 41.2858 48 40.5893V16.4106C48 15.714 47.7663 14.9385 47.3895 14.2501L24 28.5L47.3893 42.7499Z" fill="#00599C"/>
<path d="M26.0784 56.4774L45.9215 44.3882C46.4931 44.0399 47.0126 43.4385 47.3893 42.7499L23.9999 28.5L0.610596 42.7501C0.987223 43.4385 1.50691 44.0401 2.07836 44.3882L21.9215 56.4774C23.0646 57.174 24.9353 57.174 26.0784 56.4774Z" fill="#004482"/>
<path d="M47.3895 14.2499C47.0127 13.5613 46.493 12.9599 45.9216 12.6117L26.0784 0.52241C24.9354 -0.174137 23.0646 -0.174137 21.9216 0.52241L2.07843 12.6117C0.935216 13.3081 0 15.0176 0 16.4106V40.5893C0 41.2858 0.233882 42.0615 0.610667 42.7499L24 28.5L47.3895 14.2499Z" fill="#659AD2"/>
<path d="M24 45.384C15.1776 45.384 8 37.8099 8 28.5C8 19.1902 15.1776 11.616 24 11.616C29.6929 11.616 35.0022 14.8488 37.8558 20.0527L30.9315 24.281C29.5032 21.6762 26.8471 20.058 24 20.058C19.5887 20.058 16 23.845 16 28.5C16 33.1549 19.5887 36.942 24 36.942C26.8474 36.942 29.5035 35.3238 30.9319 32.7185L37.8563 36.9466C35.0027 42.151 29.6932 45.384 24 45.384Z" fill="white"/>
<path d="M40.0001 27.5619H38.2222V25.686H36.4446V27.5619H34.6667V29.4379H36.4446V31.314H38.2222V29.4379H40.0001V27.5619Z" fill="white"/>
<path d="M46.6666 27.5619H44.8887V25.686H43.1111V27.5619H41.3333V29.4379H43.1111V31.314H44.8887V29.4379H46.6666V27.5619Z" fill="white"/>
</g>
<defs>
<clipPath id="clip0_11_46">
<rect width="48" height="57" fill="white"/>
</clipPath>
</defs>
</svg>
