<svg width="37" height="46" viewBox="0 0 50 59" fill="none" xmlns="http://www.w3.org/2000/svg">
<path d="M48.8075 18.4568C48.8257 17.6256 48.6255 16.8041 48.2269 16.0746C47.8138 15.3694 47.2182 14.7887 46.503 14.3937C40.162 10.7309 33.8188 7.07318 27.4734 3.42061C25.7648 2.43222 24.1087 2.46729 22.411 3.47101C19.8874 4.95469 7.24997 12.2065 3.48437 14.3915C1.93344 15.29 1.17988 16.6663 1.17988 18.4546V40.5454C1.16387 41.359 1.35617 42.1632 1.73848 42.8816C2.15178 43.6082 2.75841 44.206 3.49094 44.6085C7.25655 46.8 19.8962 54.0431 22.4197 55.5334C24.1174 56.5371 25.7735 56.5721 27.4844 55.5838C33.8239 51.9195 40.1671 48.2603 46.5139 44.6063C47.2464 44.2038 47.8531 43.6061 48.2664 42.8794C48.6487 42.1611 48.841 41.3568 48.825 40.5432V18.4568H48.8075Z" fill="#004482"/>
<path d="M48.8118 40.5454C48.8283 41.3591 48.636 42.1634 48.2532 42.8816C48.1592 43.0526 48.0531 43.2167 47.9356 43.3725L24.9937 29.5L46.5029 14.3937C47.2176 14.7888 47.8124 15.3695 48.2247 16.0746C48.6251 16.8035 48.8261 17.6253 48.8074 18.4568C48.8118 25.8204 48.8118 40.5454 48.8118 40.5454Z" fill="#00599C"/>
<path d="M48.2249 16.0746L1.73204 42.8816C1.35143 42.1636 1.16065 41.3601 1.17782 40.5476V18.4546C1.17782 16.6663 1.93357 15.29 3.48231 14.3915C7.25011 12.2065 19.8876 4.95471 22.4133 3.46665C24.1066 2.46292 25.7649 2.42786 27.4735 3.41625C33.8131 7.08051 40.1563 10.7397 46.5031 14.3937C47.2177 14.7889 47.8125 15.3696 48.2249 16.0746Z" fill="#659AD2"/>
<path d="M25.9138 38.424C24.3483 38.4262 22.8109 38.0078 21.4622 37.2125C20.1135 36.4172 19.003 35.2742 18.2468 33.9028C18.1694 33.7655 18.0963 33.6252 18.0277 33.482C17.0946 31.554 16.9005 29.3506 17.4824 27.2891C18.0642 25.2276 19.3814 23.451 21.1847 22.296C22.9879 21.1409 25.1519 20.6875 27.2669 21.0216C29.3819 21.3557 31.301 22.4541 32.6608 24.1088C32.7769 24.2491 32.8798 24.3959 32.9959 24.5471C33.0485 24.6194 33.1011 24.6918 33.1493 24.7663L40.8316 20.3394C40.6447 20.0384 40.449 19.7462 40.2446 19.4627C40.1372 19.3115 40.0255 19.1669 39.9204 19.0244C37.2502 15.5541 33.3771 13.2107 29.0649 12.4565C24.7528 11.7024 20.3147 12.5921 16.626 14.9504C12.9374 17.3086 10.2659 20.9641 9.13852 25.1958C8.01114 29.4275 8.50972 33.9283 10.5359 37.8103C10.6104 37.9506 10.6871 38.0887 10.755 38.2267C12.2431 40.8534 14.3847 43.0506 16.9719 44.605C19.5592 46.1594 22.5042 47.0182 25.5211 47.098C28.5379 47.1778 31.5242 46.476 34.1899 45.0606C36.8557 43.6452 39.1104 41.5644 40.7352 39.0201L33.2238 34.477C32.4285 35.6902 31.3438 36.6863 30.0677 37.3753C28.7915 38.0644 27.364 38.4248 25.9138 38.424Z" fill="white"/>
</svg>
