<svg width="50" height="51" viewBox="0 0 50 51" fill="none" xmlns="http://www.w3.org/2000/svg">
<g clip-path="url(#clip0_11_92)">
<path d="M47.0098 15.2817C47.0098 14.4545 46.8335 13.7086 46.4673 13.0848C46.1147 12.461 45.5858 11.9457 44.8807 11.5389C39.0223 8.16209 33.1503 4.78539 27.2918 1.40862C25.7051 0.500011 24.1863 0.527144 22.6132 1.44929C20.2807 2.81901 8.59088 9.51821 5.11923 11.5389C3.68171 12.3661 2.99011 13.6408 2.99011 15.2953V35.6913C2.99011 36.505 3.1664 37.2237 3.50543 37.8476C3.85805 38.485 4.4005 39.0274 5.11923 39.4478C8.60447 41.4684 20.2807 48.1541 22.6132 49.5374C24.1863 50.4593 25.7187 50.5 27.2918 49.578C33.1503 46.1877 39.0223 42.8246 44.8807 39.4478C45.613 39.0274 46.1419 38.4985 46.4944 37.8476C46.8335 37.2237 47.0098 36.505 47.0098 35.6913V15.2817Z" fill="#9A4993"/>
<path d="M25.0542 25.412L3.47827 37.834C3.8309 38.4714 4.37335 39.0138 5.09208 39.4343C8.57732 41.4549 20.2535 48.1405 22.586 49.5238C24.1591 50.446 25.6916 50.4867 27.2646 49.5644C33.1231 46.1741 38.9951 42.811 44.8535 39.4343C45.5858 39.0138 46.1147 38.485 46.4673 37.834L25.0542 25.412Z" fill="#6A1577"/>
<path d="M18.6669 29.087C19.9281 31.2839 22.2877 32.7621 24.9864 32.7621C27.7122 32.7621 30.0854 31.2704 31.3331 29.0463L25.0542 25.412L18.6669 29.087Z" fill="#6A1577"/>
<path d="M47.0098 15.2817C47.0098 14.4545 46.8335 13.7086 46.4674 13.0848L25.0542 25.4119L46.4944 37.834C46.8335 37.2102 47.0098 36.4915 47.0098 35.6778V15.2817Z" fill="#813084"/>
<path d="M31.333 29.0463C30.0854 31.2568 27.7122 32.7621 24.9864 32.7621C22.2741 32.7621 19.9145 31.2839 18.6669 29.087C18.0566 28.0157 17.704 26.7952 17.704 25.4797C17.704 21.4521 20.9587 18.1974 24.9864 18.1974C27.6715 18.1974 30.0176 19.662 31.2788 21.8318L37.639 18.1702C35.1031 13.8036 30.3837 10.8608 24.9729 10.8608C16.8903 10.8608 10.3539 17.4108 10.3539 25.4797C10.3539 28.1242 11.059 30.6195 12.2931 32.7621C14.8155 37.1424 19.5619 40.0987 24.9864 40.0987C30.4245 40.0987 35.1709 37.1288 37.6932 32.7215L31.333 29.0463ZM39.3748 22.0216H37.9237V29.0328H39.3748V22.0216ZM42.5888 22.0216H41.1378V29.0328H42.5888V22.0216Z" fill="white"/>
<path d="M43.7686 23.2015H36.7574V24.6525H43.7686V23.2015ZM43.7686 26.4019H36.7574V27.853H43.7686V26.4019Z" fill="white"/>
</g>
<defs>
<clipPath id="clip0_11_92">
<rect width="50" height="50" fill="white" transform="translate(0 0.5)"/>
</clipPath>
</defs>
</svg>
