<svg width="47" height="47" viewBox="0 0 47 47" fill="none" xmlns="http://www.w3.org/2000/svg">
<g clip-path="url(#clip0_101_8)">
<path d="M43.7917 0.5L40.0965 41.8952L23.4866 46.5L6.92245 41.9017L3.2312 0.5H43.7917Z" fill="#264DE4"/>
<path d="M23.5115 42.9803L36.9331 39.2593L40.0909 3.88519H23.5115V42.9803Z" fill="#2965F1"/>
<path d="M23.5115 19.2405H11.6934L12.1485 24.3182H23.5115V19.2405Z" fill="#EBEBEB"/>
<path d="M23.5114 8.96301H23.4938H10.7788L11.2404 14.0408H23.5114V8.96301Z" fill="#EBEBEB"/>
<path d="M12.3752 26.8572L13.0866 34.83L23.488 37.7175L23.5114 37.711V32.428L23.4891 32.4339L17.834 30.9069L17.4725 26.8572H14.7246H12.3752Z" fill="#EBEBEB"/>
<path d="M29.7466 24.3182L29.1572 30.9036L23.4939 32.4322V37.715L33.9036 34.8299L33.9799 33.9721L35.1732 20.604L35.297 19.2405L36.2137 8.96301H23.4939V14.0408H30.649L30.1869 19.2405H23.4939V24.3182H29.7466Z" fill="white"/>
</g>
<defs>
<clipPath id="clip0_101_8">
<rect width="46" height="46" fill="white" transform="translate(0.5 0.5)"/>
</clipPath>
</defs>
</svg>
