<svg width="49" height="49" viewBox="0 0 49 49" fill="none" xmlns="http://www.w3.org/2000/svg">
<g clip-path="url(#clip0_101_115)">
<mask id="mask0_101_115" style="mask-type:luminance" maskUnits="userSpaceOnUse" x="0" y="0" width="49" height="49">
<path d="M0 0.0601807H48.9398V49H0V0.0601807Z" fill="white"/>
</mask>
<g mask="url(#mask0_101_115)">
<path d="M48.0177 22.3509L26.6494 0.984272C26.3567 0.691369 26.0092 0.459016 25.6266 0.300487C25.2441 0.141959 24.834 0.0603638 24.4199 0.0603638C24.0058 0.0603638 23.5958 0.141959 23.2133 0.300487C22.8307 0.459016 22.4832 0.691369 22.1904 0.984272L17.7549 5.42197L23.3824 11.0495C24.044 10.8248 24.7553 10.7897 25.4358 10.9482C26.1164 11.1067 26.7389 11.4525 27.2332 11.9464C27.7302 12.4439 28.0771 13.0712 28.2343 13.7567C28.3915 14.4421 28.3526 15.1579 28.1221 15.8222L33.5478 21.2463C34.2123 21.0155 34.9284 20.9766 35.614 21.1341C36.2996 21.2916 36.927 21.6391 37.4241 22.1368C37.7724 22.485 38.0486 22.8984 38.2371 23.3534C38.4256 23.8083 38.5226 24.296 38.5226 24.7884C38.5226 25.2809 38.4256 25.7685 38.2371 26.2235C38.0486 26.6784 37.7724 27.0918 37.4241 27.44C36.7201 28.1433 35.7656 28.5384 34.7704 28.5384C33.7752 28.5384 32.8207 28.1433 32.1167 27.44C31.5936 26.9161 31.2373 26.2492 31.0925 25.5233C30.9477 24.7973 31.0209 24.0447 31.3028 23.3602L26.2431 18.302V31.6157C26.7771 31.8795 27.2406 32.2667 27.5952 32.7453C27.9498 33.224 28.1853 33.7802 28.2821 34.3679C28.3789 34.9557 28.3343 35.558 28.152 36.1251C27.9697 36.6922 27.6549 37.2076 27.2337 37.6288C26.8855 37.9771 26.4721 38.2533 26.0172 38.4418C25.5622 38.6303 25.0746 38.7273 24.5821 38.7273C24.0897 38.7273 23.602 38.6303 23.1471 38.4418C22.6921 38.2533 22.2787 37.9771 21.9305 37.6288C21.5822 37.2806 21.3059 36.8672 21.1173 36.4122C20.9288 35.9572 20.8318 35.4695 20.8318 34.977C20.8318 34.4844 20.9288 33.9967 21.1173 33.5417C21.3059 33.0867 21.5822 32.6733 21.9305 32.3251C22.2814 31.9735 22.6985 31.6949 23.1577 31.5054V18.0693C22.7004 17.8809 22.2848 17.6041 21.9348 17.2546C21.5848 16.9052 21.3074 16.4901 21.1183 16.0331C20.9293 15.5761 20.8323 15.0862 20.8332 14.5916C20.834 14.0971 20.9325 13.6076 21.1231 13.1512L15.5744 7.6014L0.921245 22.2508C0.330772 22.8424 -0.000854492 23.6442 -0.000854492 24.48C-0.000854492 25.3159 0.330772 26.1176 0.921245 26.7093L22.2906 48.0786C22.8822 48.6689 23.6838 49.0004 24.5195 49.0004C25.3553 49.0004 26.1569 48.6689 26.7485 48.0786L48.0177 26.8094C48.6082 26.2178 48.9398 25.416 48.9398 24.5802C48.9398 23.7443 48.6082 22.9426 48.0177 22.3509Z" fill="#F03C2E"/>
</g>
</g>
<defs>
<clipPath id="clip0_101_115">
<rect width="49" height="49" fill="white"/>
</clipPath>
</defs>
</svg>
