<svg width="47" height="47" viewBox="0 0 47 47" fill="none" xmlns="http://www.w3.org/2000/svg">
<g clip-path="url(#clip0_101_129)">
<path fill-rule="evenodd" clip-rule="evenodd" d="M23.5 0.5C10.7925 0.5 0.5 10.7925 0.5 23.5C0.5 33.6775 7.08375 42.2738 16.2262 45.3213C17.3762 45.5225 17.8075 44.8325 17.8075 44.2287C17.8075 43.6825 17.7788 41.8713 17.7788 39.945C12 41.0088 10.505 38.5363 10.045 37.2425C9.78625 36.5812 8.665 34.54 7.6875 33.9937C6.8825 33.5625 5.7325 32.4987 7.65875 32.47C9.47 32.4412 10.7638 34.1375 11.195 34.8275C13.265 38.3062 16.5713 37.3288 17.8938 36.725C18.095 35.23 18.6987 34.2238 19.36 33.6488C14.2425 33.0737 8.895 31.09 8.895 22.2925C8.895 19.7913 9.78625 17.7212 11.2525 16.1112C11.0225 15.5362 10.2175 13.1788 11.4825 10.0162C11.4825 10.0162 13.4087 9.4125 17.8075 12.3738C19.6475 11.8563 21.6025 11.5975 23.5575 11.5975C25.5125 11.5975 27.4675 11.8563 29.3075 12.3738C33.7063 9.38375 35.6325 10.0162 35.6325 10.0162C36.8975 13.1788 36.0925 15.5362 35.8625 16.1112C37.3288 17.7212 38.22 19.7625 38.22 22.2925C38.22 31.1187 32.8438 33.0737 27.7263 33.6488C28.56 34.3675 29.2788 35.7475 29.2788 37.9038C29.2788 40.98 29.25 43.4525 29.25 44.2287C29.25 44.8325 29.6812 45.5513 30.8313 45.3213C39.9163 42.2738 46.5 33.6488 46.5 23.5C46.5 10.7925 36.2075 0.5 23.5 0.5Z" fill="#1B1F23"/>
</g>
<defs>
<clipPath id="clip0_101_129">
<rect width="46" height="46" fill="white" transform="translate(0.5 0.5)"/>
</clipPath>
</defs>
</svg>
