<svg width="25" height="39" viewBox="0 0 35 49" fill="none" xmlns="http://www.w3.org/2000/svg">
<g clip-path="url(#clip0_11_26)">
<path d="M24.125 33.9615C22.93 34.3025 20.24 34.8582 16.395 34.8582C12.62 34.8582 9.53498 34.2065 9.52498 33.4362C9.52498 32.931 10.1325 32.7037 10.1325 32.7037L10.0225 32.638C8.21499 32.9613 6.53749 33.4589 6.54499 34.2091C6.56249 35.5629 11.695 36.5808 16.3875 36.5808C20.3875 36.5808 24.21 35.9039 25.94 35.0173L24.125 33.9615ZM11.375 38.1518C10.535 38.321 8.70749 38.7453 8.70749 39.642C8.70749 40.8872 12.6175 41.8369 16.3925 41.8369C21.585 41.8369 23.71 40.4881 23.805 40.4174L21.6475 39.1545C19.9282 39.5671 18.1642 39.758 16.3975 39.7228C13.2875 39.7228 11.265 39.1848 11.265 38.5963C11.2707 38.5201 11.2935 38.4461 11.3316 38.3801C11.3697 38.314 11.4221 38.2575 11.485 38.2149L11.375 38.1518ZM32.5925 29.7864C32.4475 32.6002 29.8725 34.3556 27.3 35.8357L27.535 35.9721C30.285 35.1916 35.18 32.9209 34.785 29.4252C34.585 27.6825 33.0075 26.4398 30.9525 26.4398C30.3865 26.4396 29.8236 26.5248 29.2825 26.6924L29.1825 26.9449C31.02 26.5812 32.7 27.9376 32.605 29.7864M16.3325 46.3075C23.555 46.2444 31.6375 44.8148 31.6175 42.4153C31.6071 42.2317 31.5539 42.0531 31.4622 41.8942C31.3706 41.7353 31.243 41.6006 31.09 41.501L30.97 41.5692C30.3025 43.4281 24.66 44.8022 16.32 44.8754C10.94 44.9234 3.48749 43.6125 3.47499 42.1147C3.46249 40.617 7.00499 39.7759 7.00499 39.7759L6.75499 39.6319C4.37999 39.9602 0.00498278 41.1095 0.0174828 42.7689C0.0399828 45.1659 10.095 46.358 16.3325 46.305M15.5825 48.02C12.4592 48.0405 9.33949 47.8015 6.25499 47.3052L5.97998 47.4643C8.91998 48.3357 13.0075 48.8611 17.5025 48.8207C26.3275 48.7424 33.4825 46.5323 33.625 43.8701L33.5225 43.8095C32.9325 44.5369 29.1125 47.9013 15.58 48.02M4.52249 29.1398C4.52249 27.7961 9.56998 27.0409 11.9225 26.8666L12.1475 26.998C11.2425 27.1622 7.61998 27.8087 7.61998 28.6524C7.61998 29.5692 13.175 30.1678 16.405 30.1678C21.885 30.1678 25.61 29.3293 26.6125 29.054L28.015 29.8774C27.055 30.3522 22.935 31.5949 16.405 31.5949C9.15499 31.5949 4.52249 30.1628 4.52249 29.1449" fill="#00758F"/>
<path d="M26.4299 10.3456L26.3074 10.2749C24.1024 11.0326 17.3074 13.7301 17.3074 18.7791C17.3074 21.6358 20.0574 23.2169 20.0574 25.8942C20.0574 26.849 19.5225 27.7456 19.09 28.2811L19.3074 28.4074C20.4549 27.6497 22.4899 26.0205 22.4899 23.909C22.4899 22.1233 20.0424 19.9764 20.0424 17.6804C20.0424 14.061 24.7649 11.2245 26.4174 10.343M23.0949 3.72553C23.0949 11.1993 12.9599 14.0559 12.9599 19.3702C12.9599 23.1007 15.4049 25.432 16.7599 26.9197L16.6499 26.9828C14.9399 25.9018 10.4399 23.1942 10.4399 18.6983C10.4399 12.4016 22.0824 9.39083 22.0824 2.23784C22.087 1.59145 22.0139 0.946892 21.8649 0.318254L21.9824 0.250061C22.7294 1.24912 23.1206 2.47378 23.0924 3.72553" fill="#F29111"/>
</g>
<defs>
<clipPath id="clip0_11_26">
<rect width="35" height="49" fill="white"/>
</clipPath>
</defs>
</svg>
