<svg width="45" height="46" viewBox="0 0 50 51" fill="none" xmlns="http://www.w3.org/2000/svg">
<g clip-path="url(#clip0_11_82)">
<path d="M50 0.5H0V50.5H50V0.5Z" fill="#F7DF1E"/>
<path d="M33.5873 39.5627C34.5944 41.2072 35.9047 42.4159 38.2222 42.4159C40.169 42.4159 41.4127 41.4429 41.4127 40.0984C41.4127 38.4873 40.1349 37.9167 37.992 36.9794L36.8174 36.4754C33.4269 35.031 31.1746 33.2214 31.1746 29.396C31.1746 25.8722 33.8595 23.1897 38.0555 23.1897C41.0428 23.1897 43.1904 24.2294 44.7381 26.9516L41.0793 29.3008C40.2738 27.8564 39.4047 27.2873 38.0555 27.2873C36.6793 27.2873 35.8071 28.1603 35.8071 29.3008C35.8071 30.7103 36.6801 31.281 38.696 32.154L39.8706 32.6572C43.8627 34.3691 46.1166 36.1143 46.1166 40.0381C46.1166 44.2683 42.7936 46.5857 38.3309 46.5857C33.9674 46.5857 31.1484 44.5064 29.769 41.781L33.5873 39.5627ZM16.9896 39.9699C17.7277 41.2794 18.3992 42.3865 20.0135 42.3865C21.5571 42.3865 22.5309 41.7826 22.5309 39.4341V23.4579H27.2293V39.4976C27.2293 44.3627 24.3769 46.577 20.2135 46.577C16.4515 46.577 14.273 44.6302 13.165 42.2853L16.9896 39.9699Z" fill="black"/>
</g>
<defs>
<clipPath id="clip0_11_82">
<rect width="50" height="50" fill="white" transform="translate(0 0.5)"/>
</clipPath>
</defs>
</svg>
