<svg width="69" height="37" viewBox="0 0 69 37" fill="none" xmlns="http://www.w3.org/2000/svg">
<g clip-path="url(#clip0_101_39)">
<mask id="mask0_101_39" style="mask-type:luminance" maskUnits="userSpaceOnUse" x="1" y="0" width="67" height="37">
<path d="M1.45605 18.5C1.45605 28.1845 16.2506 36.0355 34.4999 36.0355C52.7491 36.0355 67.5438 28.1845 67.5438 18.5C67.5438 8.81567 52.7491 0.964569 34.4999 0.964569C16.2506 0.964569 1.45605 8.81567 1.45605 18.5Z" fill="white"/>
</mask>
<g mask="url(#mask0_101_39)">
<path d="M1.45605 18.5C1.45605 28.1845 16.2506 36.0355 34.4999 36.0355C52.7491 36.0355 67.5438 28.1845 67.5438 18.5C67.5438 8.81567 52.7491 0.964569 34.4999 0.964569C16.2506 0.964569 1.45605 8.81567 1.45605 18.5Z" fill="url(#paint0_radial_101_39)"/>
</g>
<mask id="mask1_101_39" style="mask-type:luminance" maskUnits="userSpaceOnUse" x="0" y="-2" width="69" height="41">
<path d="M0.0793457 -1.03219H68.9206V38.0322H0.0793457V-1.03219Z" fill="white"/>
</mask>
<g mask="url(#mask1_101_39)">
<path d="M34.4999 34.7335C52.0363 34.7335 66.2529 27.4655 66.2529 18.4999C66.2529 9.53455 52.0363 2.26641 34.4999 2.26641C16.9634 2.26641 2.74683 9.53455 2.74683 18.4999C2.74683 27.4655 16.9634 34.7335 34.4999 34.7335Z" fill="#777BB3"/>
</g>
<mask id="mask2_101_39" style="mask-type:luminance" maskUnits="userSpaceOnUse" x="0" y="-2" width="69" height="41">
<path d="M0.0793457 -1.03219H68.9206V38.0322H0.0793457V-1.03219Z" fill="white"/>
</mask>
<g mask="url(#mask2_101_39)">
<path d="M19.4094 20.5127C20.8514 20.5127 21.9279 20.2445 22.609 19.7156C23.2828 19.1922 23.7482 18.2854 23.9921 17.0206C24.2196 15.8383 24.1329 15.0127 23.7347 14.5672C23.3275 14.1122 22.4472 13.8814 21.1181 13.8814H18.8137L17.5362 20.5127H19.4094ZM11.8724 28.6813C11.7654 28.6813 11.6638 28.633 11.5958 28.5496C11.5277 28.4663 11.5001 28.3566 11.5205 28.2506L14.9062 10.6775C14.9389 10.5077 15.0865 10.3849 15.2581 10.3849H22.5551C24.8483 10.3849 26.5553 11.0131 27.6282 12.2522C28.7068 13.4978 29.0399 15.2389 28.6181 17.4271C28.4465 18.3186 28.1513 19.1466 27.7408 19.8878C27.3297 20.6299 26.7865 21.3166 26.126 21.929C25.3353 22.6756 24.4403 23.217 23.4684 23.5355C22.5119 23.8498 21.2835 24.0092 19.8174 24.0092H16.8628L16.019 28.3885C15.9862 28.5585 15.8387 28.6813 15.6671 28.6813H11.8724Z" fill="black"/>
<path d="M19.1092 14.2431H21.1181C22.7221 14.2431 23.2793 14.5981 23.4686 14.8097C23.7827 15.1611 23.8419 15.9018 23.6401 16.9519C23.4132 18.1274 22.9928 18.9609 22.3902 19.429C21.7732 19.9081 20.7703 20.1509 19.4093 20.1509H17.9711L19.1092 14.2431ZM22.555 10.0231H15.2579C14.9147 10.0231 14.6196 10.2686 14.5541 10.6085L11.1685 28.1816C11.1276 28.3936 11.1828 28.613 11.3189 28.7797C11.4552 28.9465 11.6581 29.0429 11.8723 29.0429H15.6669C16.0103 29.0429 16.3054 28.7974 16.3709 28.4575L17.1583 24.3709H19.8174C21.3211 24.3709 22.587 24.2054 23.5796 23.8793C24.6004 23.5447 25.5396 22.9774 26.3708 22.1933C27.0582 21.5552 27.6245 20.839 28.0536 20.0644C28.4828 19.2895 28.7911 18.4254 28.97 17.496C29.414 15.1927 29.0533 13.3482 27.8981 12.0142C26.7541 10.693 24.9563 10.0231 22.555 10.0231ZM17.1011 20.8744H19.4093C20.9393 20.8744 22.0788 20.5837 22.8276 20.0022C23.5765 19.4205 24.0816 18.4498 24.344 17.0896C24.5951 15.7836 24.4808 14.8619 24.0009 14.325C23.5205 13.7881 22.5597 13.5196 21.1181 13.5196H18.5181L17.1011 20.8744ZM22.555 10.7465C24.7502 10.7465 26.3515 11.3277 27.3581 12.4901C28.3646 13.6525 28.6677 15.275 28.2661 17.3581C28.1008 18.2162 27.8212 19.0007 27.4277 19.7115C27.0336 20.4227 26.5191 21.0731 25.8833 21.6628C25.1256 22.3781 24.2838 22.8879 23.3576 23.1914C22.4313 23.4959 21.2516 23.6474 19.8174 23.6474H16.567L15.6669 28.3195H11.8723L15.2579 10.7465H22.555Z" fill="white"/>
<path d="M37.3187 24.0092C37.2116 24.0092 37.1101 23.961 37.0421 23.8776C36.9739 23.7942 36.9463 23.6846 36.9667 23.5785L38.4644 15.8032C38.6068 15.0637 38.5717 14.533 38.3655 14.3087C38.2393 14.1716 37.8602 13.9417 36.7393 13.9417H34.026L32.143 23.7165C32.1103 23.8865 31.9627 24.0092 31.7911 24.0092H28.0263C27.9192 24.0092 27.8177 23.961 27.7496 23.8776C27.6815 23.7942 27.6539 23.6845 27.6743 23.5785L31.06 6.00548C31.0927 5.8356 31.2403 5.71286 31.4119 5.71286H35.1767C35.2838 5.71286 35.3853 5.76109 35.4534 5.8444C35.5215 5.92783 35.5491 6.03743 35.5287 6.14353L34.7117 10.3849H37.6305C39.8541 10.3849 41.3619 10.7804 42.2401 11.594C43.1353 12.424 43.4146 13.7511 43.0704 15.5389L41.4952 23.7165C41.4624 23.8865 41.3149 24.0092 41.1432 24.0092H37.3187Z" fill="black"/>
<path d="M35.1766 5.35108H31.4119C31.0685 5.35108 30.7734 5.59655 30.7079 5.93644L27.3223 23.5095C27.2814 23.7216 27.3366 23.9409 27.4729 24.1076C27.6091 24.2744 27.812 24.3708 28.0262 24.3708H31.791C32.1342 24.3708 32.4294 24.1254 32.4949 23.7855L34.3215 14.3033H36.7392C37.8582 14.3033 38.0931 14.5445 38.1025 14.5548C38.1704 14.6285 38.2597 14.9697 38.1123 15.7341L36.6146 23.5095C36.5738 23.7216 36.629 23.9409 36.7652 24.1076C36.9015 24.2744 37.1044 24.3708 37.3186 24.3708H41.1431C41.4864 24.3708 41.7816 24.1254 41.8471 23.7855L43.4222 15.6079C43.7918 13.6883 43.4756 12.2484 42.4826 11.3277C41.5351 10.4498 39.948 10.0231 37.6304 10.0231H35.1464L35.8806 6.21254C35.9213 6.00046 35.8662 5.78103 35.73 5.6144C35.5937 5.44765 35.3908 5.35108 35.1766 5.35108ZM35.1766 6.07449L34.2766 10.7465H37.6304C39.7407 10.7465 41.1963 11.1181 41.9974 11.8604C42.7985 12.6031 43.0385 13.8065 42.7183 15.47L41.1431 23.6474H37.3186L38.8163 15.8722C38.9867 14.9877 38.9241 14.3844 38.6281 14.0627C38.3321 13.741 37.7024 13.5799 36.7392 13.5799H33.7302L31.791 23.6474H28.0262L31.4119 6.07449H35.1766Z" fill="white"/>
<path d="M49.0273 20.5127C50.4693 20.5127 51.5458 20.2445 52.2269 19.7156C52.9007 19.1924 53.3661 18.2856 53.6102 17.0206C53.8376 15.8383 53.7509 15.0127 53.3526 14.5672C52.9454 14.1122 52.0651 13.8814 50.736 13.8814H48.4316L47.1541 20.5127H49.0273ZM41.4904 28.6813C41.3834 28.6813 41.2818 28.633 41.2138 28.5496C41.1457 28.4663 41.118 28.3566 41.1384 28.2506L44.5241 10.6775C44.5569 10.5077 44.7044 10.3849 44.8762 10.3849H52.173C54.4664 10.3849 56.1732 11.0131 57.2462 12.2522C58.3248 13.4976 58.6578 15.2388 58.2362 17.4271C58.0643 18.3186 57.7692 19.1466 57.3587 19.8878C56.9476 20.6299 56.4044 21.3166 55.7439 21.929C54.9532 22.6756 54.0582 23.217 53.0863 23.5355C52.1298 23.8498 50.9014 24.0092 49.4353 24.0092H46.4805L45.6371 28.3885C45.6043 28.5585 45.4568 28.6813 45.285 28.6813H41.4904Z" fill="black"/>
<path d="M48.7273 14.2431H50.7361C52.3401 14.2431 52.8973 14.5981 53.0866 14.8097C53.4008 15.1611 53.4601 15.9018 53.2581 16.9518C53.0313 18.1274 52.6107 18.9609 52.0082 19.429C51.3913 19.9081 50.3883 20.1509 49.0274 20.1509H47.5892L48.7273 14.2431ZM52.173 10.0231H44.8761C44.5329 10.0231 44.2378 10.2686 44.1723 10.6085L40.7866 28.1816C40.7458 28.3936 40.801 28.613 40.9371 28.7797C41.0733 28.9465 41.2763 29.0429 41.4905 29.0429H45.2851C45.6283 29.0429 45.9235 28.7974 45.989 28.4575L46.7763 24.3709H49.4354C50.9392 24.3709 52.2051 24.2054 53.1977 23.8793C54.2184 23.5447 55.1578 22.9773 55.9891 22.193C56.6765 21.5551 57.2426 20.839 57.6716 20.0644C58.1008 19.2895 58.4092 18.4254 58.5881 17.496C59.0321 15.1925 58.6714 13.3481 57.5161 12.0141C56.3721 10.693 54.5745 10.0231 52.173 10.0231ZM46.7193 20.8744H49.0274C50.5573 20.8744 51.6969 20.5837 52.4457 20.0022C53.1947 19.4205 53.6996 18.4498 53.9621 17.0896C54.2133 15.7836 54.0989 14.8619 53.619 14.325C53.1385 13.7881 52.1777 13.5196 50.7361 13.5196H48.1362L46.7193 20.8744ZM52.173 10.7465C54.3682 10.7465 55.9696 11.3277 56.9762 12.4901C57.9827 13.6525 58.2857 15.275 57.8841 17.3581C57.7188 18.2162 57.4393 19.0007 57.0457 19.7115C56.6517 20.4227 56.1372 21.0731 55.5013 21.6628C54.7436 22.3781 53.9018 22.8879 52.9756 23.1914C52.0493 23.4959 50.8696 23.6474 49.4354 23.6474H46.1851L45.2851 28.3195H41.4905L44.8761 10.7465H52.173Z" fill="white"/>
</g>
</g>
<defs>
<radialGradient id="paint0_radial_101_39" cx="0" cy="0" r="1" gradientUnits="userSpaceOnUse" gradientTransform="translate(21.2957 7.12949) scale(43.3913 43.7736)">
<stop stop-color="#AEB2D5"/>
<stop offset="0.3" stop-color="#AEB2D5"/>
<stop offset="0.75" stop-color="#484C89"/>
<stop offset="1" stop-color="#484C89"/>
</radialGradient>
<clipPath id="clip0_101_39">
<rect width="68" height="37" fill="white" transform="translate(0.5)"/>
</clipPath>
</defs>
</svg>
