<svg width="49" height="49" viewBox="0 0 49 49" fill="none" xmlns="http://www.w3.org/2000/svg">
<g clip-path="url(#clip0_11_72)">
<path d="M24.2924 0.0138855C11.8831 0.0138864 12.658 5.41641 12.658 5.41641L12.6719 11.0134H24.5138V12.6939H7.9683C7.9683 12.6939 0.0275879 11.7898 0.0275879 24.36C0.027587 36.9302 6.95842 36.4844 6.95842 36.4844H11.0948V30.6514C11.0948 30.6514 10.8718 23.6933 17.9149 23.6933H29.66C29.66 23.6933 36.2588 23.8004 36.2588 17.2909V6.52747C36.2588 6.52747 37.2607 0.0138855 24.2924 0.0138855ZM17.7628 3.7776C18.9409 3.7776 19.8932 4.73359 19.8932 5.91639C19.8932 7.09919 18.9409 8.05518 17.7628 8.05518C16.5846 8.05518 15.6323 7.09919 15.6323 5.91639C15.6323 4.73359 16.5846 3.7776 17.7628 3.7776Z" fill="url(#paint0_linear_11_72)"/>
<path d="M24.6447 48.8321C37.0541 48.8321 36.2791 43.4296 36.2791 43.4296L36.2653 37.8326H24.4234V36.1521H40.9689C40.9689 36.1521 48.9096 37.0562 48.9096 24.486C48.9096 11.9158 41.9787 12.3616 41.9787 12.3616H37.8424V18.1946C37.8424 18.1946 38.0653 25.1526 31.0222 25.1526H19.2772C19.2772 25.1526 12.6783 25.0456 12.6783 31.5551V42.3185C12.6783 42.3185 11.6765 48.8321 24.6447 48.8321ZM31.1744 45.0684C29.9962 45.0684 29.044 44.1124 29.044 42.9296C29.044 41.7468 29.9962 40.7908 31.1744 40.7908C32.3526 40.7908 33.3048 41.7468 33.3048 42.9296C33.3048 44.1124 32.3526 45.0684 31.1744 45.0684Z" fill="url(#paint1_linear_11_72)"/>
</g>
<defs>
<linearGradient id="paint0_linear_11_72" x1="469.794" y1="439.121" x2="2901.6" y2="2837.26" gradientUnits="userSpaceOnUse">
<stop stop-color="#387EB8"/>
<stop offset="1" stop-color="#366994"/>
</linearGradient>
<linearGradient id="paint1_linear_11_72" x1="706.017" y1="762.933" x2="3317.04" y2="3221.57" gradientUnits="userSpaceOnUse">
<stop stop-color="#FFE052"/>
<stop offset="1" stop-color="#FFC331"/>
</linearGradient>
<clipPath id="clip0_11_72">
<rect width="49" height="49" fill="white"/>
</clipPath>
</defs>
</svg>
