<svg width="51" height="45" viewBox="0 0 51 45" fill="none" xmlns="http://www.w3.org/2000/svg">
<g clip-path="url(#clip0_101_23)">
<path d="M25.5 27.008C27.9612 27.008 29.9565 24.9897 29.9565 22.5C29.9565 20.0103 27.9612 17.9919 25.5 17.9919C23.0387 17.9919 21.0435 20.0103 21.0435 22.5C21.0435 24.9897 23.0387 27.008 25.5 27.008Z" fill="#61DAFB"/>
<path d="M25.5 31.736C38.7068 31.736 49.413 27.6009 49.413 22.5C49.413 17.3991 38.7068 13.264 25.5 13.264C12.2931 13.264 1.58691 17.3991 1.58691 22.5C1.58691 27.6009 12.2931 31.736 25.5 31.736Z" stroke="#61DAFB"/>
<path d="M17.5928 27.118C24.1962 38.6876 33.0895 45.9991 37.4565 43.4487C41.8236 40.8982 40.0106 29.4516 33.4072 17.882C26.8038 6.31239 17.9105 -0.999109 13.5435 1.55133C9.17648 4.10177 10.9894 15.5484 17.5928 27.118Z" stroke="#61DAFB"/>
<path d="M17.5929 17.882C10.9895 29.4516 9.17652 40.8982 13.5435 43.4487C17.9106 45.9991 26.8038 38.6876 33.4072 27.118C40.0107 15.5483 41.8236 4.10177 37.4566 1.55133C33.0896 -0.999113 24.1963 6.31238 17.5929 17.882Z" stroke="#61DAFB"/>
</g>
<defs>
<clipPath id="clip0_101_23">
<rect width="50" height="45" fill="white" transform="translate(0.5)"/>
</clipPath>
</defs>
</svg>
