<svg width="62" height="51" viewBox="0 0 62 51" fill="none" xmlns="http://www.w3.org/2000/svg">
<g clip-path="url(#clip0_101_494)">
<path d="M51.2857 23.3345C51.2857 20.6092 47.8916 18.0264 42.6878 16.4247C43.8887 11.0914 43.355 6.84826 41.0032 5.48977C40.4611 5.17111 39.8274 5.02016 39.1352 5.02016V6.89019C39.5188 6.89019 39.8274 6.96566 40.0859 7.10821C41.22 7.76229 41.7122 10.2529 41.3284 13.4562C41.2368 14.2444 41.0867 15.0746 40.9032 15.9216C39.2686 15.5191 37.484 15.2088 35.6076 15.0075C34.4819 13.4562 33.3143 12.0474 32.1384 10.8147C34.8571 8.27382 37.409 6.88179 39.1436 6.88179V5.01178C36.8501 5.01178 33.848 6.65538 30.8125 9.50651C27.7769 6.67215 24.7748 5.04533 22.4815 5.04533V6.91533C24.2077 6.91533 26.7678 8.29899 29.4865 10.8231C28.319 12.0558 27.1514 13.4562 26.0423 15.0075C24.1575 15.2088 22.3729 15.5191 20.7385 15.93C20.5466 15.0914 20.4049 14.278 20.3047 13.4981C19.9129 10.2948 20.3965 7.80422 21.5224 7.14175C21.7725 6.99081 22.0977 6.92373 22.4815 6.92373V5.05371C21.7809 5.05371 21.147 5.20466 20.5967 5.52331C18.2533 6.88179 17.728 11.1166 18.9371 16.4331C13.75 18.0432 10.3726 20.6176 10.3726 23.3345C10.3726 26.06 13.7667 28.6428 18.9705 30.2443C17.7696 35.5777 18.3033 39.8208 20.6551 41.1793C21.1972 41.4979 21.8309 41.6488 22.5315 41.6488C24.8248 41.6488 27.827 40.0053 30.8625 37.1542C33.898 39.9886 36.9003 41.6154 39.1936 41.6154C39.894 41.6154 40.5278 41.4645 41.0783 41.1457C43.4216 39.7872 43.9471 35.5524 42.7378 30.2361C47.9082 28.6343 51.2857 26.0515 51.2857 23.3345ZM40.4279 17.7413C40.1193 18.8231 39.7357 19.9382 39.3019 21.0536C38.9601 20.3828 38.6015 19.7119 38.2096 19.041C37.826 18.3702 37.4172 17.7161 37.0086 17.0788C38.1928 17.2549 39.3353 17.4729 40.4279 17.7413ZM36.6083 26.672C35.9578 27.8042 35.2908 28.8775 34.5986 29.8755C33.3559 29.9844 32.0968 30.0431 30.8291 30.0431C29.5699 30.0431 28.3106 29.9844 27.0765 29.8837C26.3843 28.8858 25.7087 27.8209 25.0582 26.6971C24.4244 25.5987 23.8491 24.4834 23.3236 23.3598C23.8407 22.236 24.4244 21.1123 25.05 20.0138C25.7005 18.8818 26.3675 17.8084 27.0597 16.8105C28.3024 16.7014 29.5615 16.6428 30.8291 16.6428C32.0884 16.6428 33.3477 16.7014 34.5818 16.8021C35.274 17.8 35.9496 18.8649 36.6001 19.9887C37.2339 21.0871 37.8092 22.2025 38.3347 23.3262C37.8092 24.4498 37.2339 25.5736 36.6083 26.672ZM39.3019 25.582C39.7397 26.6748 40.1238 27.7886 40.4529 28.9194C39.3603 29.1877 38.2096 29.4142 37.017 29.5903C37.4256 28.9447 37.8342 28.2822 38.2179 27.6028C38.6015 26.9321 38.9601 26.2527 39.3019 25.582ZM30.8457 34.5295C30.0702 33.7244 29.2946 32.8271 28.5275 31.846C29.278 31.8796 30.0452 31.9047 30.8208 31.9047C31.6047 31.9047 32.3803 31.888 33.1392 31.846C32.4234 32.7814 31.6578 33.6773 30.8457 34.5295ZM24.6413 29.5903C23.4571 29.4142 22.3146 29.1961 21.2222 28.9278C21.5306 27.846 21.9144 26.7307 22.348 25.6154C22.69 26.2863 23.0486 26.9572 23.4403 27.628C23.8323 28.2989 24.2327 28.9529 24.6413 29.5903ZM30.8042 12.1396C31.5797 12.9446 32.3553 13.8419 33.1224 14.8231C32.3719 14.7895 31.6047 14.7644 30.8291 14.7644C30.0452 14.7644 29.2696 14.7811 28.5109 14.8231C29.2266 13.8877 29.9922 12.9919 30.8042 12.1396ZM24.6329 17.0788C24.2243 17.7245 23.8157 18.387 23.4321 19.0661C23.0486 19.737 22.69 20.408 22.348 21.0787C21.9102 19.9859 21.5261 18.8721 21.1972 17.7413C22.2896 17.4813 23.4403 17.2549 24.6329 17.0788ZM17.0857 27.5777C14.1336 26.3114 12.2239 24.6512 12.2239 23.3345C12.2239 22.018 14.1336 20.3493 17.0857 19.0914C17.8029 18.7811 18.5869 18.5044 19.3958 18.2444C19.8712 19.888 20.4966 21.5987 21.2722 23.3514C20.505 25.0956 19.8878 26.7978 19.4208 28.4331C18.5953 28.173 17.8113 27.888 17.0857 27.5777ZM21.5724 39.5609C20.4382 38.9068 19.9461 36.4163 20.3299 33.2128C20.4216 32.4247 20.5716 31.5944 20.7551 30.7474C22.3897 31.15 24.1743 31.4603 26.0507 31.6615C27.1764 33.2128 28.344 34.6216 29.5199 35.8543C26.8012 38.3953 24.2493 39.7872 22.5147 39.7872C22.1395 39.7789 21.8227 39.7034 21.5724 39.5609ZM41.3536 33.171C41.7453 36.3743 41.2618 38.8648 40.1359 39.5273C39.8858 39.6783 39.5606 39.7454 39.1768 39.7454C37.4506 39.7454 34.8904 38.3617 32.1718 35.8376C33.3393 34.6049 34.5069 33.2046 35.616 31.6531C37.5007 31.4519 39.2853 31.1416 40.9198 30.7307C41.1117 31.5777 41.2618 32.3911 41.3536 33.171ZM44.5641 27.5777C43.847 27.888 43.063 28.1648 42.2541 28.4247C41.7787 26.7811 41.1533 25.0705 40.3777 23.3178C41.1451 21.5735 41.7621 19.8713 42.2291 18.236C43.0548 18.496 43.8386 18.7811 44.5725 19.0914C47.5247 20.3575 49.4344 22.018 49.4344 23.3345C49.426 24.6512 47.5163 26.3199 44.5641 27.5777Z" fill="#61DAFB"/>
<path d="M30.8206 27.1668C32.9256 27.1668 34.6319 25.4511 34.6319 23.3345C34.6319 21.218 32.9256 19.5023 30.8206 19.5023C28.7159 19.5023 27.0096 21.218 27.0096 23.3345C27.0096 25.4511 28.7159 27.1668 30.8206 27.1668ZM12.2302 48.2472H10.9722V50.4259H10.2622V45.0402H12.0353C12.6385 45.0402 13.1021 45.1784 13.4258 45.4546C13.7519 45.7306 13.915 46.1326 13.915 46.6603C13.915 46.9957 13.8243 47.2879 13.6428 47.5371C13.4638 47.7861 13.2136 47.9723 12.8924 48.0955L14.1505 50.3815V50.4259H13.3927L12.2302 48.2472ZM10.9722 47.6665H12.0574C12.408 47.6665 12.6864 47.5751 12.8924 47.3927C13.1008 47.2102 13.205 46.9661 13.205 46.6603C13.205 46.3274 13.1057 46.0722 12.9071 45.8947C12.7109 45.7171 12.4264 45.6271 12.0537 45.6246H10.9722V47.6665ZM16.4533 50.5C15.9137 50.5 15.4747 50.3224 15.1363 49.9672C14.7979 49.6097 14.6287 49.1324 14.6287 48.5358V48.4099C14.6287 48.013 14.7034 47.6591 14.853 47.3484C15.0051 47.0351 15.216 46.791 15.4858 46.616C15.758 46.4384 16.0523 46.3496 16.3686 46.3496C16.8861 46.3496 17.2883 46.5209 17.5751 46.8637C17.8621 47.2065 18.0055 47.6972 18.0055 48.3359V48.6207H15.3092C15.319 49.0154 15.433 49.3348 15.6513 49.5789C15.872 49.8204 16.1516 49.9414 16.49 49.9414C16.7304 49.9414 16.9339 49.892 17.1006 49.7934C17.2675 49.6948 17.4133 49.5641 17.5384 49.4013L17.9541 49.7268C17.6205 50.2421 17.1203 50.5 16.4533 50.5ZM16.3686 46.9119C16.094 46.9119 15.8634 47.013 15.677 47.2151C15.4907 47.415 15.3754 47.6961 15.3313 48.0585H17.3251V48.0068C17.3055 47.6591 17.2123 47.3903 17.0456 47.2003C16.8787 47.0081 16.653 46.9119 16.3686 46.9119ZM21.2538 50.4259C21.2144 50.347 21.1826 50.2065 21.1581 50.0042C20.8417 50.3346 20.4641 50.5 20.0251 50.5C19.6327 50.5 19.3103 50.389 19.0576 50.1669C18.8076 49.9425 18.6825 49.659 18.6825 49.3162C18.6825 48.8995 18.8395 48.5765 19.1533 48.3471C19.4696 48.1152 19.9136 47.9993 20.4849 47.9993H21.1471V47.685C21.1471 47.4458 21.0759 47.2558 20.9338 47.1154C20.7915 46.9723 20.5817 46.9008 20.3046 46.9008C20.0618 46.9008 19.8584 46.9624 19.6941 47.0857C19.5298 47.2089 19.4476 47.3582 19.4476 47.5333H18.7634C18.7634 47.3336 18.8333 47.1412 18.973 46.9562C19.1153 46.7688 19.3066 46.6209 19.547 46.5123C19.7898 46.4039 20.0557 46.3496 20.3451 46.3496C20.8038 46.3496 21.163 46.4654 21.4229 46.6974C21.6829 46.9267 21.8177 47.2436 21.8276 47.6479V49.49C21.8276 49.8575 21.8742 50.1497 21.9674 50.3666V50.4259H21.2538ZM20.1245 49.9044C20.3378 49.9044 20.5401 49.8489 20.7315 49.7379C20.9226 49.6269 21.0612 49.4827 21.1471 49.3051V48.484H20.6136C19.7799 48.484 19.3629 48.7293 19.3629 49.22C19.3629 49.4345 19.4341 49.6023 19.5762 49.7231C19.7185 49.8439 19.9013 49.9044 20.1245 49.9044ZM24.4909 49.9414C24.7336 49.9414 24.9459 49.8673 25.1273 49.7193C25.3087 49.5714 25.4093 49.3865 25.4288 49.1645H26.0727C26.0604 49.3938 25.9819 49.6121 25.8372 49.8193C25.6925 50.0265 25.4988 50.1917 25.256 50.3149C25.0156 50.4383 24.7607 50.5 24.4909 50.5C23.9489 50.5 23.5173 50.3186 23.196 49.9562C22.8773 49.5911 22.7178 49.0931 22.7178 48.4617V48.3471C22.7178 47.9575 22.7889 47.611 22.9312 47.3077C23.0734 47.0044 23.2769 46.7688 23.5419 46.6012C23.8091 46.4334 24.1242 46.3496 24.4871 46.3496C24.9336 46.3496 25.3039 46.484 25.5982 46.7529C25.8948 47.0216 26.053 47.3706 26.0727 47.7996H25.4288C25.4093 47.5406 25.3112 47.3286 25.1346 47.1634C24.9606 46.9957 24.7446 46.9119 24.4871 46.9119C24.1414 46.9119 23.8729 47.0375 23.6815 47.2892C23.4928 47.5382 23.3983 47.8995 23.3983 48.373V48.5024C23.3983 48.9635 23.4928 49.3186 23.6815 49.5676C23.8704 49.8169 24.1403 49.9414 24.4909 49.9414ZM27.7611 45.4546V46.4236H28.5042V46.9526H27.7611V49.4345C27.7611 49.5948 27.7943 49.7156 27.8605 49.797C27.9267 49.8759 28.0395 49.9155 28.199 49.9155C28.2773 49.9155 28.3853 49.9007 28.5225 49.871V50.4259C28.3435 50.4752 28.1695 50.5 28.0002 50.5C27.6962 50.5 27.4668 50.4073 27.3123 50.2224C27.1579 50.0376 27.0807 49.7749 27.0807 49.4345V46.9526H26.3558V46.4236H27.0807V45.4546H27.7611ZM35.3942 50.4259H34.6841L31.9878 46.2757V50.4259H31.2779V45.0402H31.9878L34.6915 49.2089V45.0402H35.3942V50.4259ZM38.9992 50.4259C38.9598 50.347 38.9279 50.2065 38.9035 50.0042C38.5871 50.3346 38.2094 50.5 37.7705 50.5C37.3781 50.5 37.0555 50.389 36.803 50.1669C36.553 49.9425 36.4278 49.659 36.4278 49.3162C36.4278 48.8995 36.5847 48.5765 36.8987 48.3471C37.215 48.1152 37.659 47.9993 38.2303 47.9993H38.8925V47.685C38.8925 47.4458 38.8213 47.2558 38.679 47.1154C38.5369 46.9723 38.3271 46.9008 38.05 46.9008C37.8072 46.9008 37.6038 46.9624 37.4395 47.0857C37.2752 47.2089 37.193 47.3582 37.193 47.5333H36.5088C36.5088 47.3336 36.5787 47.1412 36.7184 46.9562C36.8607 46.7688 37.052 46.6209 37.2924 46.5123C37.5351 46.4039 37.8011 46.3496 38.0905 46.3496C38.549 46.3496 38.9084 46.4654 39.1683 46.6974C39.4283 46.9267 39.5631 47.2436 39.573 47.6479V49.49C39.573 49.8575 39.6196 50.1497 39.7128 50.3666V50.4259H38.9992ZM37.8699 49.9044C38.0832 49.9044 38.2855 49.8489 38.4769 49.7379C38.668 49.6269 38.8065 49.4827 38.8925 49.3051V48.484H38.359C37.5253 48.484 37.1083 48.7293 37.1083 49.22C37.1083 49.4345 37.1795 49.6023 37.3216 49.7231C37.4639 49.8439 37.6467 49.9044 37.8699 49.9044ZM41.5631 45.4546V46.4236H42.3062V46.9526H41.5631V49.4345C41.5631 49.5948 41.5962 49.7156 41.6624 49.797C41.7286 49.8759 41.8415 49.9155 42.0009 49.9155C42.0792 49.9155 42.1872 49.9007 42.3246 49.871V50.4259C42.1454 50.4752 41.9714 50.5 41.8021 50.5C41.4982 50.5 41.2688 50.4073 41.1142 50.2224C40.9598 50.0376 40.8826 49.7749 40.8826 49.4345V46.9526H40.1579V46.4236H40.8826V45.4546H41.5631ZM43.8439 50.4259H43.1632V46.4236H43.8439V50.4259ZM43.108 45.3619C43.108 45.2511 43.1412 45.1574 43.2074 45.0808C43.276 45.0043 43.3765 44.9663 43.5089 44.9663C43.6415 44.9663 43.742 45.0043 43.8107 45.0808C43.8793 45.1574 43.9136 45.2511 43.9136 45.3619C43.9136 45.4729 43.8793 45.5654 43.8107 45.6395C43.742 45.7133 43.6415 45.7505 43.5089 45.7505C43.3765 45.7505 43.276 45.7133 43.2074 45.6395C43.1412 45.5654 43.108 45.4729 43.108 45.3619ZM46.2496 49.4975L47.2353 46.4236H47.9307L46.5034 50.4259H45.9846L44.5428 46.4236H45.238L46.2496 49.4975ZM50.1856 50.5C49.6461 50.5 49.2071 50.3224 48.8687 49.9672C48.5302 49.6097 48.3611 49.1324 48.3611 48.5358V48.4099C48.3611 48.013 48.4359 47.6591 48.5854 47.3484C48.7374 47.0351 48.9483 46.791 49.2181 46.616C49.4904 46.4384 49.7847 46.3496 50.1009 46.3496C50.6184 46.3496 51.0206 46.5209 51.3076 46.8637C51.5944 47.2065 51.738 47.6972 51.738 48.3359V48.6207H49.0415C49.0514 49.0154 49.1654 49.3348 49.3837 49.5789C49.6043 49.8204 49.8841 49.9414 50.2223 49.9414C50.4627 49.9414 50.6663 49.892 50.833 49.7934C50.9998 49.6948 51.1458 49.5641 51.2709 49.4013L51.6866 49.7268C51.3529 50.2421 50.8526 50.5 50.1856 50.5ZM50.1009 46.9119C49.8264 46.9119 49.5958 47.013 49.4095 47.2151C49.223 47.415 49.1078 47.6961 49.0637 48.0585H51.0574V48.0068C51.0378 47.6591 50.9446 47.3903 50.7778 47.2003C50.6111 47.0081 50.3855 46.9119 50.1009 46.9119Z" fill="#61DAFB"/>
</g>
<defs>
<clipPath id="clip0_101_494">
<rect width="62" height="50" fill="white" transform="translate(0 0.5)"/>
</clipPath>
</defs>
</svg>
