<svg width="43" height="45" viewBox="0 0 43 45" fill="none" xmlns="http://www.w3.org/2000/svg">
<g clip-path="url(#clip0_101_506)">
<path d="M28.0293 22.4562L35.7406 9.19354L39.4669 22.4562L35.7406 35.7158L28.0293 22.4562ZM24.2708 24.61L31.9833 37.8707L18.5514 34.4432L8.84778 24.61H24.2708ZM31.9815 7.03799L24.2708 20.3006H8.84778L18.5514 10.4669L31.9815 7.03799ZM42.99 17.9428L38.2856 0.510315L20.7261 5.18216L18.1269 9.73394L12.8524 9.6963L0 22.4574L12.8524 35.2156H12.853L18.1251 35.1767L20.7281 39.7284L38.2856 44.3996L42.99 26.9703L40.3184 22.4562L42.99 17.9428Z" fill="#222C37"/>
</g>
<defs>
<clipPath id="clip0_101_506">
<rect width="43" height="44" fill="white" transform="translate(0 0.5)"/>
</clipPath>
</defs>
</svg>
