<svg width="41" height="31" viewBox="0 0 41 31" fill="none" xmlns="http://www.w3.org/2000/svg">
<path d="M20.5 0L41 10.8841L20.5 21.7682L0 10.8841L20.5 0ZM35.5449 10.8842L20.5 2.89696L5.45513 10.8842L20.5 18.8714L35.5449 10.8842ZM34.3437 21.8924H31.5376V13.7479H34.3438L34.3437 21.8924ZM20.5 30.997C20.3936 30.9988 20.2682 30.9999 20.1424 30.9999C16.8059 30.9999 13.6654 30.2567 10.9211 28.9472L11.0244 28.9924C8.57833 28.0006 6.86525 25.9297 6.65769 23.4871L6.6562 23.465V13.748H9.46233V23.465C9.72177 24.9932 10.8513 26.2442 12.3825 26.8247L12.4144 26.8354C14.6527 27.8952 17.3107 28.5177 20.133 28.5177C20.262 28.5177 20.3907 28.5163 20.5191 28.5137L20.5 28.5141C20.6092 28.5163 20.7379 28.5177 20.867 28.5177C23.6893 28.5177 26.3472 27.8952 28.675 26.797L28.5855 26.8355C30.1487 26.2442 31.2781 24.9933 31.5343 23.489L31.5376 23.4651V21.8925H34.3438V23.4651C34.1348 25.9298 32.4217 28.0007 30.0219 28.9755L29.9755 28.9924C27.3345 30.2568 24.1941 31 20.8576 31C20.7319 31 20.6064 30.9989 20.4812 30.9968L20.5 30.9971V30.997ZM26.6175 18.0519L19.5084 11.7614L21.4915 10.0067L28.6005 16.2972L26.6175 18.0519ZM29.0121 23.465H26.2059V17.1746H29.0121V23.465Z" fill="white" fill-opacity="0.5"/>
</svg>
