<svg width="30" height="38" viewBox="0 0 30 38" fill="none" xmlns="http://www.w3.org/2000/svg">
<path d="M15 0C6.75 0 0 6.84 0 15.2C0 25.46 13.125 37.05 13.6875 37.62C14.0625 37.81 14.625 38 15 38C15.375 38 15.9375 37.81 16.3125 37.62C16.875 37.05 30 25.46 30 15.2C30 6.84 23.25 0 15 0ZM15 33.63C11.0625 29.83 3.75 21.66 3.75 15.2C3.75 8.93 8.8125 3.8 15 3.8C21.1875 3.8 26.25 8.93 26.25 15.2C26.25 21.47 18.9375 29.83 15 33.63ZM15 7.6C10.875 7.6 7.5 11.02 7.5 15.2C7.5 19.38 10.875 22.8 15 22.8C19.125 22.8 22.5 19.38 22.5 15.2C22.5 11.02 19.125 7.6 15 7.6ZM15 19C12.9375 19 11.25 17.29 11.25 15.2C11.25 13.11 12.9375 11.4 15 11.4C17.0625 11.4 18.75 13.11 18.75 15.2C18.75 17.29 17.0625 19 15 19Z" fill="#BB2626"/>
</svg>
